<svg xmlns="http://www.w3.org/2000/svg" width="750" height="471" viewBox="0 0 750 471"><title>Slice 1</title><path fill="#0E4595" d="M40 0h670c22.1 0 40 17.9 40 40v391c0 22.1-17.9 40-40 40H40c-22.1 0-40-17.9-40-40V40C0 17.9 17.9 0 40 0z"/><path fill="#FFF" d="M293.6 138.4l-82 195.7h-53.5l-40.4-156.2c-2.5-9.6-4.6-13.1-12-17.2-12.1-6.6-32.2-12.8-49.9-16.7l1.2-5.6h86.1c11 0 20.8 7.3 23.3 20l21.3 113.2 52.7-133.2h53.2M503.3 270.2c.2-51.7-71.4-54.5-70.9-77.6.2-7.1 6.8-14.5 21.5-16.4 7.3-.9 27.2-1.7 49.9 8.8l8.9-41.5c-12.1-4.4-27.9-8.7-47.3-8.7-50 0-85.2 26.6-85.5 64.7-.3 28.1 25.1 43.9 44.3 53.2 19.7 9.6 26.3 15.7 26.3 24.3-.2 13.1-15.8 18.9-30.3 19.1-25.4.4-40.2-6.8-52-12.3l-9.2 42.9c11.8 5.4 33.7 10.1 56.3 10.4 53 .1 87.8-26.2 88-66.9M635.4 334.1h46.8l-40.8-195.7h-43.2c-9.7 0-17.9 5.6-21.5 14.3L500.8 334h53.1l10.6-29.2h64.9l6 29.3zm-56.5-69.3l26.7-73.5 15.3 73.5h-42zM366 138.4l-41.9 195.7h-50.6l41.8-195.7"/></svg>