<?xml version="1.0" encoding="utf-8"?>
<!-- Generator: Adobe Illustrator 13.0.0, SVG Export Plug-In . SVG Version: 6.00 Build 14948)  -->
<!DOCTYPE svg PUBLIC "-//W3C//DTD SVG 1.1//EN" "http://www.w3.org/Graphics/SVG/1.1/DTD/svg11.dtd">
<svg version="1.1" id="Layer_1" xmlns:sketch="http://www.bohemiancoding.com/sketch/ns"
	 xmlns="http://www.w3.org/2000/svg" xmlns:xlink="http://www.w3.org/1999/xlink" x="0px" y="0px" width="750px" height="471px"
	 viewBox="0 0 750 471" enable-background="new 0 0 750 471" xml:space="preserve">
<title>Slice 1</title>
<desc>Created with Sketch.</desc>
<g id="Page-1" sketch:type="MSPage">
	<g id="visa" sketch:type="MSLayerGroup">
		<path id="Rectangle-1" sketch:type="MSShapeGroup" fill="#0E4595" d="M40,0h670c22.1,0,40,17.9,40,40v391c0,22.1-17.9,40-40,40H40
			c-22.1,0-40-17.9-40-40V40C0,17.9,17.9,0,40,0z"/>
		<path fill="#FFFFFF" d="M293.6,138.4l-82,195.7h-53.5l-40.4-156.2c-2.5-9.6-4.6-13.1-12-17.2c-12.1-6.6-32.2-12.8-49.9-16.7
			l1.2-5.6h86.1c11,0,20.8,7.3,23.3,20l21.3,113.2l52.7-133.2H293.6"/>
		<path fill="#FFFFFF" d="M503.3,270.2c0.2-51.7-71.4-54.5-70.9-77.6c0.2-7.1,6.8-14.5,21.5-16.4c7.3-0.9,27.2-1.7,49.9,8.8
			l8.9-41.5c-12.1-4.4-27.9-8.7-47.3-8.7c-50,0-85.2,26.6-85.5,64.7c-0.3,28.1,25.1,43.9,44.3,53.2c19.7,9.6,26.3,15.7,26.3,24.3
			c-0.2,13.1-15.8,18.9-30.3,19.1c-25.4,0.4-40.2-6.8-52-12.3l-9.2,42.9c11.8,5.4,33.7,10.1,56.3,10.4
			C468.3,337.2,503.1,310.9,503.3,270.2"/>
		<path fill="#FFFFFF" d="M635.4,334.1h46.8l-40.8-195.7h-43.2c-9.7,0-17.9,5.6-21.5,14.3l-75.9,181.3h53.1l10.6-29.2h64.9
			L635.4,334.1z M578.9,264.8l26.7-73.5l15.3,73.5H578.9z"/>
		<polygon fill="#FFFFFF" points="366,138.4 324.1,334.1 273.5,334.1 315.3,138.4 		"/>
	</g>
</g>
</svg>
